<svg xmlns="http://www.w3.org/2000/svg" xmlns:xlink="http://www.w3.org/1999/xlink" width="33" height="23" viewBox="0 0 33 23">
  <defs>
    <clipPath id="clip-path">
      <rect id="Rectangle_7" data-name="Rectangle 7" width="26" height="16" rx="3" transform="translate(0.267 -0.223)" fill="#fff"/>
    </clipPath>
  </defs>
  <g id="Group_80518" data-name="Group 80518" transform="translate(-716 -353)">
    <rect id="Rectangle_25131" data-name="Rectangle 25131" width="33" height="23" rx="3" transform="translate(716 353)" fill="#162887"/>
    <g id="discover_network" data-name="discover network" transform="translate(-123.267 -328.369)">
      <g id="_1" data-name="1" transform="translate(843 685.592)">
        <g id="Mask_Group_2" data-name="Mask Group 2" transform="translate(0 0)" clip-path="url(#clip-path)">
          <path id="Rectangle-1-copy" d="M49.543,49.245H64.117a1.57,1.57,0,0,0,1.775-1.775V40.429S62.363,46.641,49.543,49.245Zm0,0" transform="translate(-38.903 -32.936)" fill="#d97b16" fill-rule="evenodd"/>
        </g>
        <rect id="Rectangle_8" data-name="Rectangle 8" width="26" height="16" rx="3" transform="translate(0.267 -0.223)" fill="none"/>
      </g>
      <g id="Page-1" transform="translate(845.777 689.899)">
        <g id="DISCOVER" transform="translate(0 0)">
          <path id="NETWORK" d="M52.038,48.748h.226l.7,1.04h0v-1.04h.172v1.266h-.218l-.706-1.043h0v1.04h-.172Zm1.423,0h.817v.161h-.645v.377h.6v.161h-.6v.405h.678v.161h-.85Zm1.357.161h-.408v-.161H55.4v.161h-.409v1.105h-.172Zm.6-.161H55.6l.279,1.012h0l.3-1.012h.2l.3,1.012h0l.279-1.012h.178l-.368,1.266h-.181l-.307-1.032h0l-.306,1.033h-.183Zm2.462,1.3A.683.683,0,0,1,57.616,50a.62.62,0,0,1-.208-.14.649.649,0,0,1-.137-.211.727.727,0,0,1,0-.526A.649.649,0,0,1,57.4,48.9a.62.62,0,0,1,.208-.14.721.721,0,0,1,.533,0,.62.62,0,0,1,.21.14.649.649,0,0,1,.132.211.727.727,0,0,1,0,.529.649.649,0,0,1-.137.211.62.62,0,0,1-.208.14.682.682,0,0,1-.264.054Zm0-.161a.463.463,0,0,0,.347-.148.477.477,0,0,0,.1-.16.581.581,0,0,0,0-.392.471.471,0,0,0-.887,0,.581.581,0,0,0,0,.392.477.477,0,0,0,.1.16.463.463,0,0,0,.347.148Zm.907-1.137h.445a.521.521,0,0,1,.2.033.341.341,0,0,1,.124.084.286.286,0,0,1,.066.114.451.451,0,0,1,.018.122.326.326,0,0,1-.021.117.331.331,0,0,1-.061.1.353.353,0,0,1-.1.077.343.343,0,0,1-.132.038l.359.577h-.214l-.32-.558H58.96v.558h-.172Zm.172.558h.226a.613.613,0,0,0,.1-.008.264.264,0,0,0,.087-.03.161.161,0,0,0,.061-.061.247.247,0,0,0,0-.209.161.161,0,0,0-.061-.061.265.265,0,0,0-.088-.032.613.613,0,0,0-.1-.008h-.229Zm.92-.558h.172V49.3h.015l.559-.549h.239l-.61.584.653.681h-.25l-.59-.633h-.015v.633h-.172Zm0,0" transform="translate(-46.101 -44.744)" fill="#fff" fill-rule="evenodd"/>
          <path id="Path_29" data-name="Path 29" d="M14.134,23.472h1.181a1.807,1.807,0,0,1,.571.091,1.389,1.389,0,0,1,.487.277,1.354,1.354,0,0,1,.339.468,1.6,1.6,0,0,1,.127.662,1.389,1.389,0,0,1-.524,1.131,1.606,1.606,0,0,1-.512.274,1.784,1.784,0,0,1-.552.091H14.134Zm.93,2.513a1.888,1.888,0,0,0,.472-.057,1.124,1.124,0,0,0,.387-.178.844.844,0,0,0,.26-.313,1.046,1.046,0,0,0,.1-.468,1.162,1.162,0,0,0-.085-.463.809.809,0,0,0-.235-.316.979.979,0,0,0-.355-.178,1.677,1.677,0,0,0-.451-.057h-.486v2.03Zm2.267-2.513h.533v2.995h-.533Zm2.657.643a.491.491,0,0,0-.226-.18.794.794,0,0,0-.3-.057.756.756,0,0,0-.18.021.488.488,0,0,0-.157.066.354.354,0,0,0-.112.12.348.348,0,0,0-.043.175.274.274,0,0,0,.106.233,1.04,1.04,0,0,0,.264.14q.157.059.343.114a1.394,1.394,0,0,1,.343.152.847.847,0,0,1,.264.258.767.767,0,0,1,.106.427.939.939,0,0,1-.089.42.86.86,0,0,1-.239.3,1.034,1.034,0,0,1-.349.178,1.46,1.46,0,0,1-.419.059,1.571,1.571,0,0,1-.537-.091,1.035,1.035,0,0,1-.444-.313l.4-.389a.672.672,0,0,0,.256.229.719.719,0,0,0,.336.083.705.705,0,0,0,.186-.025.576.576,0,0,0,.169-.076.4.4,0,0,0,.122-.132.345.345,0,0,0,.046-.18.313.313,0,0,0-.106-.254.934.934,0,0,0-.264-.15q-.157-.061-.343-.116a1.443,1.443,0,0,1-.343-.15.834.834,0,0,1-.264-.254.756.756,0,0,1-.106-.425.807.807,0,0,1,.1-.4.869.869,0,0,1,.249-.281,1.089,1.089,0,0,1,.353-.167,1.516,1.516,0,0,1,.406-.055,1.481,1.481,0,0,1,.457.072,1.064,1.064,0,0,1,.4.237h0ZM23,24.174a.892.892,0,0,0-.32-.237.86.86,0,0,0-.311-.059,1.038,1.038,0,0,0-.42.083.961.961,0,0,0-.323.229,1.038,1.038,0,0,0-.21.341,1.168,1.168,0,0,0-.074.419,1.288,1.288,0,0,0,.074.444,1.043,1.043,0,0,0,.21.351.974.974,0,0,0,.323.233,1.015,1.015,0,0,0,.42.085.773.773,0,0,0,.353-.086.964.964,0,0,0,.32-.277l.44.313a1.2,1.2,0,0,1-.493.4,1.542,1.542,0,0,1-.622.127,1.751,1.751,0,0,1-.637-.112,1.427,1.427,0,0,1-.827-.81,1.662,1.662,0,0,1-.115-.637,1.734,1.734,0,0,1,.118-.653,1.466,1.466,0,0,1,.331-.5,1.437,1.437,0,0,1,.5-.32,1.751,1.751,0,0,1,.637-.112,1.46,1.46,0,0,1,.565.108,1.317,1.317,0,0,1,.484.366h0Zm4.018-.7h.613l.816,2.263.842-2.263h.575l-1.208,3H28.2Zm3.168,0h1.984v.482h-1.45v.736H32.1v.482H30.725v.812h1.527v.482H30.193Zm2.585,0h1.04a2.12,2.12,0,0,1,.417.04,1.067,1.067,0,0,1,.357.137.719.719,0,0,1,.249.264.844.844,0,0,1,.091.419.834.834,0,0,1-.18.546.771.771,0,0,1-.514.264l.794,1.323h-.641L33.7,25.2h-.389v1.269h-.533Zm.948,1.269q.114,0,.229-.011a.7.7,0,0,0,.21-.051.357.357,0,0,0,.154-.122.39.39,0,0,0,.059-.229.366.366,0,0,0-.055-.212.342.342,0,0,0-.144-.12.661.661,0,0,0-.2-.053,1.793,1.793,0,0,0-.21-.012h-.463v.812Zm0,0" transform="translate(-14.134 -23.392)" fill="#fff" fill-rule="evenodd"/>
          <circle id="Oval-1" cx="1.575" cy="1.575" r="1.575" transform="translate(9.692 0.005)" fill="#d97b16"/>
        </g>
      </g>
    </g>
  </g>
</svg>
