<svg xmlns="http://www.w3.org/2000/svg" width="33" height="23" viewBox="0 0 33 23">
  <g id="Group_80519" data-name="Group 80519" transform="translate(-760 -353)">
    <path id="Path_264969" data-name="Path 264969" d="M3,0H30a3,3,0,0,1,3,3V20a3,3,0,0,1-3,3H3a3,3,0,0,1-3-3V3A3,3,0,0,1,3,0Z" transform="translate(760 353)" fill="#3b89c3"/>
    <g id="maestro" transform="translate(703.884 226.582)">
      <g id="Group_78819" data-name="Group 78819" transform="translate(60.126 130.442)">
        <path id="Path_254950" data-name="Path 254950" d="M72.615,143.457a7.473,7.473,0,1,0-5.007,1.932,7.473,7.473,0,0,0,5.007-1.932Z" transform="translate(-60.126 -130.442)" fill="#009ddd"/>
        <path id="Path_254951" data-name="Path 254951" d="M230.767,167.93a7.471,7.471,0,0,0,0-11.082Z" transform="translate(-218.277 -154.916)" fill="#009ddd"/>
      </g>
      <path id="Path_254952" data-name="Path 254952" d="M206.872,130.446a7.473,7.473,0,0,0-5.022,1.932,9.6,9.6,0,0,0-.746.791h1.508a9.593,9.593,0,0,1,.571.79h-2.65q-.24.4-.439.791h3.514a8.336,8.336,0,0,1,.321.791h-4.142a7.162,7.162,0,0,0-.22.8h4.581a7.957,7.957,0,0,1,.162,1.581,7.523,7.523,0,0,1-.382,2.373h-4.142a7.756,7.756,0,0,0,.307.791h3.514a8.117,8.117,0,0,1-.425.791h-2.65a7.942,7.942,0,0,0,.571.791h1.508a7.692,7.692,0,0,1-.761.791,7.474,7.474,0,1,0,5.022-13.015Z" transform="translate(-129.234 -0.004)" fill="#ed1c2e"/>
      <g id="Group_78820" data-name="Group 78820" transform="translate(62.618 135.991)">
        <path id="Path_254953" data-name="Path 254953" d="M366.194,251.705a.244.244,0,0,1,.249-.234.231.231,0,0,1,.234.234.244.244,0,0,1-.234.249.257.257,0,0,1-.249-.249Zm.249.192a.182.182,0,0,0,.176-.192.169.169,0,0,0-.176-.176.181.181,0,0,0-.192.176.192.192,0,0,0,.192.192Zm-.03-.088h-.058V251.6h.088c.029,0,.044,0,.059.015s.029.029.029.044-.015.059-.044.059l.044.088h-.059l-.029-.073h-.03v.074Zm0-.117h.058v-.045h-.058Z" transform="translate(-346.285 -248.163)" fill="#fff"/>
        <path id="Path_254954" data-name="Path 254954" d="M98.195,210.057h-.938l.556-2.913-1.273,2.913h-.848l-.146-2.9-.556,2.9H94.14l.718-3.791h1.463l.073,2.342,1.026-2.342h1.5Z" transform="translate(-94.14 -206.266)" fill="#fff"/>
        <path id="Path_254955" data-name="Path 254955" d="M273.777,210.018a2.378,2.378,0,0,1-.674.1c-.468,0-.732-.234-.732-.673a2.072,2.072,0,0,1,.029-.279l.058-.307.045-.234.424-2.357h.922l-.128.7h.482l-.128.747h-.483l-.234,1.288a.713.713,0,0,0-.029.131c0,.162.1.234.321.234a1.063,1.063,0,0,0,.249-.029l-.117.674Z" transform="translate(-259.328 -206.27)" fill="#fff"/>
        <path id="Path_254956" data-name="Path 254956" d="M297.994,215.526a.249.249,0,0,0-.1-.03c-.044-.015-.073-.015-.073-.029h-.1a.962.962,0,0,0-.806.5L297,215.5h-.849l-.571,3.089h.937c.337-1.889.469-2.225.922-2.225.03,0,.074.015.117.015l.1.029.337-.877Z" transform="translate(-280.837 -214.794)" fill="#fff"/>
        <path id="Path_254957" data-name="Path 254957" d="M236.717,216.112c0,.381.22.659.718.85.381.16.439.2.439.351,0,.192-.176.278-.542.278a3.015,3.015,0,0,1-.85-.128l-.117.718h.044l.16.044c.058,0,.146.015.249.015a3.833,3.833,0,0,0,.527.029c.981,0,1.449-.321,1.449-1.026,0-.425-.192-.673-.673-.864-.4-.146-.439-.192-.439-.337,0-.16.161-.249.469-.249a6.12,6.12,0,0,1,.673.044l.132-.705a5.614,5.614,0,0,0-.82-.058c-1.054,0-1.42.468-1.42,1.038Z" transform="translate(-225.957 -214.429)" fill="#fff"/>
        <path id="Path_254958" data-name="Path 254958" d="M158.133,218.215h-.761l.015-.321a1.269,1.269,0,0,1-.981.366.8.8,0,0,1-.849-.834c0-.747.6-1.186,1.64-1.186a3.612,3.612,0,0,1,.38.015.586.586,0,0,0,.029-.192c0-.2-.162-.278-.6-.278a3.931,3.931,0,0,0-.761.073l-.128.044-.089.014.128-.688a4.214,4.214,0,0,1,1.113-.161c.8,0,1.215.307,1.215.892a3.273,3.273,0,0,1-.073.615l-.192,1.1-.029.192-.03.162-.015.1-.015.088Zm-.673-1.376a1.215,1.215,0,0,0-.2-.015c-.527,0-.791.161-.791.469a.3.3,0,0,0,.321.321.718.718,0,0,0,.674-.777Z" transform="translate(-151.063 -214.423)" fill="#fff"/>
        <path id="Path_254959" data-name="Path 254959" d="M200.488,217.939a3.543,3.543,0,0,1-.952.128c-1.038,0-1.581-.484-1.581-1.391a1.686,1.686,0,0,1,1.626-1.83,1.108,1.108,0,0,1,1.245,1.113,3.146,3.146,0,0,1-.1.761h-1.86v.1c0,.351.264.541.805.541a2.473,2.473,0,0,0,.966-.192l-.146.761Zm-.5-1.83v-.161c0-.249-.162-.4-.439-.4-.293,0-.5.2-.586.557Z" transform="translate(-190.358 -214.222)" fill="#fff"/>
        <path id="Path_254960" data-name="Path 254960" d="M326.67,216.417a1.647,1.647,0,0,1-1.816,1.475,1.311,1.311,0,0,1-1.463-1.419,1.732,1.732,0,0,1,1.829-1.831,1.347,1.347,0,0,1,1.479,1.391,1.575,1.575,0,0,1-.029.381Zm-.966-.394c0-.321-.132-.614-.513-.614-.469,0-.762.555-.762,1.054,0,.41.205.688.527.688a.907.907,0,0,0,.717-.746A1.621,1.621,0,0,0,325.7,216.024Z" transform="translate(-306.615 -214.032)" fill="#fff"/>
      </g>
    </g>
  </g>
</svg>
