<svg xmlns="http://www.w3.org/2000/svg" width="33" height="23" viewBox="0 0 33 23">
  <g id="Group_80520" data-name="Group 80520" transform="translate(-800 -353)">
    <rect id="Rectangle_25129" data-name="Rectangle 25129" width="33" height="23" rx="3" transform="translate(800 353)" fill="#162887"/>
    <g id="visa_1_" data-name="visa (1)" transform="translate(802.894 260.014)">
      <g id="Group_78818" data-name="Group 78818" transform="translate(2.542 100.226)">
        <g id="Group_78817" data-name="Group 78817" transform="translate(0 0)">
          <path id="Path_254948" data-name="Path 254948" d="M35.842,100.228l-1.366,8.5h2.181l1.365-8.5Zm6.583,3.462c-.763-.377-1.23-.631-1.23-1.016.01-.35.4-.709,1.257-.709a3.8,3.8,0,0,1,1.626.315l.2.088.3-1.778a5.509,5.509,0,0,0-1.959-.35c-2.156,0-3.673,1.121-3.683,2.723-.018,1.183,1.087,1.839,1.914,2.233.844.4,1.132.666,1.132,1.025-.01.551-.683.805-1.311.805a4.439,4.439,0,0,1-2.049-.438l-.287-.131-.305,1.848a6.817,6.817,0,0,0,2.434.439c2.291,0,3.781-1.1,3.8-2.812C44.268,104.995,43.687,104.277,42.425,103.69Zm7.744-3.435H48.482a1.081,1.081,0,0,0-1.142.684L44.1,108.727H46.39l.631-1.686h2.563l.327,1.693h2.021Zm-2.516,5.084c.044,0,.88-2.753.88-2.753l.665,2.753Zm-15-5.11L30.513,106l-.233-1.142a6.345,6.345,0,0,0-3.019-3.451l1.959,7.306h2.31l3.432-8.489H32.652Z" transform="translate(-27.261 -100.226)" fill="#fff"/>
        </g>
      </g>
      <path id="Path_254949" data-name="Path 254949" d="M4.842,101.342a1.426,1.426,0,0,0-1.417-1.095H.035L0,100.405a8.309,8.309,0,0,1,5.579,4.541Z" transform="translate(0 -0.018)" fill="#efc75e"/>
    </g>
  </g>
</svg>
